<svg width="58" height="16" viewBox="0 0 58 16" fill="none" xmlns="http://www.w3.org/2000/svg">
<path fill-rule="evenodd" clip-rule="evenodd" d="M16 8C16 12.4183 12.4183 16 8 16C3.58173 16 0 12.4183 0 8C0 3.58172 3.58173 0 8 0C12.4183 0 16 3.58172 16 8ZM37 8C37 12.4183 33.4183 16 29 16C24.5817 16 21 12.4183 21 8C21 3.58172 24.5817 0 29 0C33.4183 0 37 3.58172 37 8ZM50 16C54.4183 16 58 12.4183 58 8C58 3.58172 54.4183 0 50 0C45.5817 0 42 3.58172 42 8C42 12.4183 45.5817 16 50 16Z" fill="#C4C4C4"/>
</svg>
